<svg width="19" height="19" viewBox="0 0 19 19" fill="none" xmlns="http://www.w3.org/2000/svg">
<path fill-rule="evenodd" clip-rule="evenodd" d="M11.7748 5.19465C11.9506 5.0189 12.189 4.92017 12.4376 4.92017C12.6862 4.92017 12.9246 5.0189 13.1004 5.19465L16.8504 8.94465C17.0261 9.12046 17.1249 9.35888 17.1249 9.60747C17.1249 9.85606 17.0261 10.0945 16.8504 10.2703L13.1004 14.0203C12.9236 14.1911 12.6867 14.2855 12.4409 14.2834C12.1951 14.2813 11.96 14.1827 11.7862 14.0089C11.6124 13.835 11.5138 13.5999 11.5116 13.3541C11.5095 13.1083 11.604 12.8715 11.7748 12.6947L13.9244 10.545H3.06256C2.81392 10.545 2.57546 10.4462 2.39965 10.2704C2.22383 10.0946 2.12506 9.85611 2.12506 9.60747C2.12506 9.35883 2.22383 9.12037 2.39965 8.94455C2.57546 8.76874 2.81392 8.66997 3.06256 8.66997H13.9244L11.7748 6.52028C11.599 6.34447 11.5003 6.10606 11.5003 5.85747C11.5003 5.60887 11.599 5.37046 11.7748 5.19465V5.19465Z" fill="#111827"/>
</svg>
