<svg width="20" height="20" viewBox="0 0 20 20" fill="none" xmlns="http://www.w3.org/2000/svg">
<path fill-rule="evenodd" clip-rule="evenodd" d="M10.1563 0.70137C4.97656 0.70137 0.78125 4.89668 0.78125 10.0764C0.78125 14.2248 3.46484 17.7287 7.19141 18.9709C7.66016 19.0529 7.83594 18.7717 7.83594 18.5256C7.83594 18.3029 7.82422 17.5647 7.82422 16.7795C5.46875 17.2131 4.85938 16.2053 4.67188 15.6779C4.56641 15.4084 4.10938 14.5764 3.71094 14.3537C3.38281 14.1779 2.91406 13.7443 3.69922 13.7326C4.4375 13.7209 4.96484 14.4123 5.14063 14.6936C5.98438 16.1115 7.33203 15.7131 7.8711 15.467C7.95313 14.8576 8.19922 14.4475 8.46875 14.2131C6.38281 13.9787 4.20313 13.1701 4.20313 9.58418C4.20313 8.56465 4.56641 7.7209 5.16406 7.06465C5.07031 6.83028 4.74219 5.86934 5.25781 4.58028C5.25781 4.58028 6.04297 4.33418 7.83594 5.54121C8.58594 5.33028 9.38281 5.22481 10.1797 5.22481C10.9766 5.22481 11.7734 5.33028 12.5234 5.54121C14.3164 4.32246 15.1016 4.58028 15.1016 4.58028C15.6172 5.86934 15.2891 6.83028 15.1953 7.06465C15.793 7.7209 16.1563 8.55293 16.1563 9.58418C16.1563 13.1818 13.9648 13.9787 11.8789 14.2131C12.2188 14.5061 12.5117 15.0686 12.5117 15.9475C12.5117 17.2014 12.5 18.2092 12.5 18.5256C12.5 18.7717 12.6758 19.0647 13.1445 18.9709C15.0056 18.3426 16.6228 17.1464 17.7685 15.5509C18.9142 13.9553 19.5307 12.0407 19.5313 10.0764C19.5313 4.89668 15.3359 0.70137 10.1563 0.70137Z" fill="black"/>
</svg>
