<svg width="62" height="62" viewBox="0 0 62 62" fill="none" xmlns="http://www.w3.org/2000/svg">
<rect x="0.8125" y="0.576172" width="60.9375" height="60.9375" rx="7.5" fill="#55ACEE"/>
<path fill-rule="evenodd" clip-rule="evenodd" d="M28.2684 27.493H32.6207V29.6609C33.2477 28.4141 34.8555 27.2938 37.2707 27.2938C41.9008 27.2938 43 29.7758 43 34.3297V42.7637H38.3125V35.3668C38.3125 32.7734 37.6856 31.3109 36.0895 31.3109C33.8758 31.3109 32.9559 32.8871 32.9559 35.3656V42.7637H28.2684V27.493ZM20.2305 42.5645H24.918V27.2938H20.2305V42.5645ZM25.5895 22.3145C25.5896 22.7074 25.5117 23.0964 25.3602 23.4589C25.2087 23.8214 24.9867 24.1502 24.707 24.4262C24.1403 24.9894 23.3732 25.3047 22.5742 25.3027C21.7766 25.3022 21.0113 24.9877 20.4438 24.4273C20.1651 24.1504 19.9438 23.8213 19.7926 23.4587C19.6414 23.0961 19.5632 22.7073 19.5625 22.3145C19.5625 21.5211 19.8789 20.7617 20.4449 20.2016C21.012 19.6404 21.7776 19.3258 22.5754 19.3262C23.3746 19.3262 24.141 19.6414 24.707 20.2016C25.2719 20.7617 25.5895 21.5211 25.5895 22.3145Z" fill="white"/>
</svg>
