<svg width="86" height="33" viewBox="0 0 86 33" fill="none" xmlns="http://www.w3.org/2000/svg">
<path d="M4.08422 25.8832C3.02875 25.8832 2.13914 25.5364 1.41539 24.8428C0.721797 24.1492 0.375 23.2596 0.375 22.174C0.375 21.0883 0.721797 20.2138 1.41539 19.5504C2.13914 18.8568 3.02875 18.51 4.08422 18.51C5.13969 18.51 6.01422 18.8568 6.70781 19.5504C7.43156 20.244 7.79344 21.1185 7.79344 22.174C7.79344 23.2596 7.43156 24.1492 6.70781 24.8428C6.01422 25.5364 5.13969 25.8832 4.08422 25.8832Z" fill="#FFC36A"/>
<path d="M12.5503 32.6876V0.880981H15.6644V32.6876H12.5503Z" fill="#FFC36A"/>
<path d="M33.9277 27.3339H26.9144V8.59619H33.9277C36.658 8.59619 38.9244 9.49739 40.7268 11.2998C42.547 13.0843 43.4572 15.3061 43.4572 17.9651C43.4572 20.624 42.547 22.8547 40.7268 24.6571C38.9244 26.4416 36.658 27.3339 33.9277 27.3339ZM29.8857 11.2462V24.6839H33.7135C35.6587 24.6839 37.2559 24.0504 38.505 22.7833C39.7721 21.4985 40.4056 19.8924 40.4056 17.9651C40.4056 16.0199 39.7721 14.4138 38.505 13.1468C37.2559 11.8798 35.6587 11.2462 33.7135 11.2462H29.8857Z" fill="#111827"/>
<path d="M51.697 13.3877C53.3387 13.3877 54.6771 13.816 55.7122 14.6726C56.7472 15.5291 57.2647 16.7605 57.2647 18.3666V27.3339H54.4541V25.2995C53.3298 26.8342 51.7416 27.6016 49.6893 27.6016C48.3866 27.6016 47.3248 27.2536 46.5039 26.5576C45.683 25.8617 45.2726 24.9337 45.2726 23.7737C45.2726 22.4353 45.7455 21.436 46.6913 20.7757C47.6371 20.0976 48.8417 19.6782 50.305 19.5176L52.9551 19.2499C53.9544 19.1607 54.4541 18.7146 54.4541 17.9115C54.4541 17.2512 54.1953 16.7248 53.6778 16.3322C53.1781 15.9396 52.5178 15.7433 51.697 15.7433C50.8582 15.7433 50.1444 15.9574 49.5555 16.3857C48.9844 16.814 48.6186 17.4386 48.458 18.2595L45.6741 17.5903C45.9239 16.3054 46.5932 15.2882 47.6817 14.5387C48.7703 13.7714 50.1087 13.3877 51.697 13.3877ZM50.305 25.3263C51.465 25.3263 52.4465 24.9426 53.2495 24.1753C54.0526 23.3901 54.4541 22.48 54.4541 21.4449V20.9096C54.2221 21.1237 53.7046 21.2754 52.9015 21.3646L50.305 21.6858C49.6269 21.7751 49.0826 21.9803 48.6721 22.3015C48.2795 22.6049 48.0832 23.0242 48.0832 23.5596C48.0832 24.095 48.2795 24.5233 48.6721 24.8445C49.0826 25.1657 49.6269 25.3263 50.305 25.3263Z" fill="#111827"/>
<path d="M65.579 24.5233L69.7816 13.6554H72.6458L64.8295 32.6875H61.9653L64.0264 27.6819L58.298 13.6554H61.3496L65.579 24.5233Z" fill="#111827"/>
<path d="M79.4323 13.3877C81.0741 13.3877 82.4125 13.816 83.4476 14.6726C84.4826 15.5291 85.0001 16.7605 85.0001 18.3666V27.3339H82.1895V25.2995C81.0652 26.8342 79.477 27.6016 77.4247 27.6016C76.122 27.6016 75.0602 27.2536 74.2393 26.5576C73.4184 25.8617 73.008 24.9337 73.008 23.7737C73.008 22.4353 73.4809 21.436 74.4267 20.7757C75.3725 20.0976 76.5771 19.6782 78.0404 19.5176L80.6904 19.2499C81.6898 19.1607 82.1895 18.7146 82.1895 17.9115C82.1895 17.2512 81.9307 16.7248 81.4132 16.3322C80.9135 15.9396 80.2532 15.7433 79.4323 15.7433C78.5936 15.7433 77.8798 15.9574 77.2909 16.3857C76.7198 16.814 76.354 17.4386 76.1934 18.2595L73.4095 17.5903C73.6593 16.3054 74.3285 15.2882 75.4171 14.5387C76.5057 13.7714 77.8441 13.3877 79.4323 13.3877ZM78.0404 25.3263C79.2003 25.3263 80.1818 24.9426 80.9849 24.1753C81.7879 23.3901 82.1895 22.48 82.1895 21.4449V20.9096C81.9575 21.1237 81.4399 21.2754 80.6369 21.3646L78.0404 21.6858C77.3623 21.7751 76.818 21.9803 76.4075 22.3015C76.0149 22.6049 75.8186 23.0242 75.8186 23.5596C75.8186 24.095 76.0149 24.5233 76.4075 24.8445C76.818 25.1657 77.3623 25.3263 78.0404 25.3263Z" fill="#111827"/>
</svg>
