
<svg width="218" height="48" viewBox="0 0 218 48" fill="none" xmlns="http://www.w3.org/2000/svg">
<path d="M4.08422 40.5707C3.02875 40.5707 2.13914 40.2239 1.41539 39.5303C0.721797 38.8367 0.375 37.9471 0.375 36.8615C0.375 35.7758 0.721797 34.9013 1.41539 34.2379C2.13914 33.5443 3.02875 33.1975 4.08422 33.1975C5.13969 33.1975 6.01422 33.5443 6.70781 34.2379C7.43156 34.9315 7.79344 35.806 7.79344 36.8615C7.79344 37.9471 7.43156 38.8367 6.70781 39.5303C6.01422 40.2239 5.13969 40.5707 4.08422 40.5707Z" fill="#FFC36A"/>
<path d="M12.5503 47.3751V15.5685H15.6644V47.3751H12.5503Z" fill="#FFC36A"/>
<path d="M33.9276 42.0213H26.9143V23.2836H33.9276C36.6579 23.2836 38.9243 24.1848 40.7267 25.9872C42.5469 27.7717 43.457 29.9935 43.457 32.6524C43.457 35.3114 42.5469 37.5421 40.7267 39.3445C38.9243 41.129 36.6579 42.0213 33.9276 42.0213ZM29.8856 25.9336V39.3712H33.7134C35.6586 39.3712 37.2557 38.7377 38.5049 37.4707C39.772 36.1858 40.4055 34.5797 40.4055 32.6524C40.4055 30.7073 39.772 29.1012 38.5049 27.8342C37.2557 26.5671 35.6586 25.9336 33.7134 25.9336H29.8856Z" fill="#111827"/>
<path d="M51.6968 28.0751C53.3386 28.0751 54.677 28.5034 55.7121 29.3599C56.7471 30.2165 57.2646 31.4479 57.2646 33.054V42.0213H54.454V39.9869C53.3297 41.5216 51.7414 42.289 49.6892 42.289C48.3865 42.289 47.3247 41.941 46.5038 41.245C45.6829 40.549 45.2725 39.6211 45.2725 38.4611C45.2725 37.1227 45.7454 36.1234 46.6912 35.4631C47.637 34.785 48.8416 34.3656 50.3049 34.205L52.9549 33.9373C53.9543 33.8481 54.454 33.4019 54.454 32.5989C54.454 31.9386 54.1952 31.4122 53.6777 31.0196C53.178 30.627 52.5177 30.4307 51.6968 30.4307C50.8581 30.4307 50.1443 30.6448 49.5554 31.0731C48.9843 31.5014 48.6185 32.126 48.4579 32.9469L45.674 32.2777C45.9238 30.9928 46.593 29.9756 47.6816 29.2261C48.7702 28.4588 50.1086 28.0751 51.6968 28.0751ZM50.3049 40.0137C51.4648 40.0137 52.4463 39.63 53.2494 38.8626C54.0524 38.0774 54.454 37.1673 54.454 36.1323V35.5969C54.222 35.8111 53.7044 35.9628 52.9014 36.052L50.3049 36.3732C49.6268 36.4624 49.0825 36.6677 48.672 36.9889C48.2794 37.2922 48.0831 37.7116 48.0831 38.247C48.0831 38.7823 48.2794 39.2106 48.672 39.5319C49.0825 39.8531 49.6268 40.0137 50.3049 40.0137Z" fill="#111827"/>
<path d="M65.5788 39.2106L69.7814 28.3428H72.6456L64.8293 47.3749H61.9651L64.0263 42.3693L58.2979 28.3428H61.3495L65.5788 39.2106Z" fill="#111827"/>
<path d="M79.4322 28.0751C81.074 28.0751 82.4124 28.5034 83.4474 29.3599C84.4825 30.2165 85 31.4479 85 33.054V42.0213H82.1893V39.9869C81.0651 41.5216 79.4768 42.289 77.4246 42.289C76.1219 42.289 75.0601 41.941 74.2392 41.245C73.4183 40.549 73.0079 39.6211 73.0079 38.4611C73.0079 37.1227 73.4808 36.1234 74.4266 35.4631C75.3724 34.785 76.5769 34.3656 78.0403 34.205L80.6903 33.9373C81.6897 33.8481 82.1893 33.4019 82.1893 32.5989C82.1893 31.9386 81.9306 31.4122 81.4131 31.0196C80.9134 30.627 80.2531 30.4307 79.4322 30.4307C78.5935 30.4307 77.8797 30.6448 77.2908 31.0731C76.7197 31.5014 76.3539 32.126 76.1933 32.9469L73.4094 32.2777C73.6592 30.9928 74.3284 29.9756 75.417 29.2261C76.5056 28.4588 77.844 28.0751 79.4322 28.0751ZM78.0403 40.0137C79.2002 40.0137 80.1817 39.63 80.9848 38.8626C81.7878 38.0774 82.1893 37.1673 82.1893 36.1323V35.5969C81.9573 35.8111 81.4398 35.9628 80.6368 36.052L78.0403 36.3732C77.3621 36.4624 76.8179 36.6677 76.4074 36.9889C76.0148 37.2922 75.8185 37.7116 75.8185 38.247C75.8185 38.7823 76.0148 39.2106 76.4074 39.5319C76.8179 39.8531 77.3621 40.0137 78.0403 40.0137Z" fill="#111827"/>
</svg>
